<svg width="52" height="52" viewBox="0 0 52 52" fill="none" xmlns="http://www.w3.org/2000/svg">
<rect width="52" height="52" rx="26" fill="url(#paint0_linear_76_502)"/>
<path d="M18.0688 37.968V34.608L27.9248 25.824C28.6928 25.1413 29.2261 24.496 29.5248 23.888C29.8234 23.28 29.9728 22.6933 29.9728 22.128C29.9728 21.36 29.8074 20.6773 29.4768 20.08C29.1461 19.472 28.6874 18.992 28.1008 18.64C27.5248 18.288 26.8581 18.112 26.1008 18.112C25.3008 18.112 24.5914 18.2987 23.9728 18.672C23.3648 19.0347 22.8901 19.52 22.5488 20.128C22.2074 20.736 22.0474 21.392 22.0688 22.096H18.1008C18.1008 20.56 18.4421 19.2213 19.1248 18.08C19.8181 16.9387 20.7674 16.0533 21.9728 15.424C23.1888 14.7947 24.5914 14.48 26.1808 14.48C27.6528 14.48 28.9754 14.8107 30.1488 15.472C31.3221 16.1227 32.2448 17.0293 32.9167 18.192C33.5888 19.344 33.9248 20.672 33.9248 22.176C33.9248 23.2747 33.7754 24.1973 33.4768 24.944C33.1781 25.6907 32.7301 26.3787 32.1328 27.008C31.5461 27.6373 30.8154 28.336 29.9408 29.104L22.9488 35.296L22.5968 34.336H33.9248V37.968H18.0688Z" fill="white"/>
<defs>
<linearGradient id="paint0_linear_76_502" x1="0" y1="0" x2="52.8983" y2="11.1593" gradientUnits="userSpaceOnUse">
<stop stop-color="#A7E2FF"/>
<stop offset="1" stop-color="#0095DE"/>
</linearGradient>
</defs>
</svg>
