<svg width="52" height="52" viewBox="0 0 52 52" fill="none" xmlns="http://www.w3.org/2000/svg">
<rect width="52" height="52" rx="26" fill="url(#paint0_linear_76_507)"/>
<path d="M26.0351 38.432C24.8831 38.432 23.7951 38.208 22.7711 37.76C21.7471 37.312 20.8565 36.6773 20.0991 35.856C19.3525 35.0347 18.8138 34.064 18.4831 32.944L22.2111 31.936C22.4778 32.8533 22.9631 33.5627 23.6671 34.064C24.3818 34.5547 25.1658 34.7947 26.0191 34.784C26.7765 34.784 27.4538 34.608 28.0511 34.256C28.6485 33.904 29.1178 33.4293 29.4591 32.832C29.8005 32.224 29.9711 31.5467 29.9711 30.8C29.9711 29.6587 29.6031 28.704 28.8671 27.936C28.1311 27.168 27.1818 26.784 26.0191 26.784C25.6671 26.784 25.3205 26.832 24.9791 26.928C24.6485 27.024 24.3285 27.1573 24.0191 27.328L22.2591 24.288L30.0031 17.664L30.3391 18.592H19.3791V14.96H33.5071V18.608L27.2831 24.592L27.2511 23.456C28.6485 23.552 29.8378 23.9413 30.8191 24.624C31.8111 25.3067 32.5685 26.1867 33.0911 27.264C33.6245 28.3413 33.8911 29.52 33.8911 30.8C33.8911 32.2507 33.5338 33.552 32.8191 34.704C32.1151 35.856 31.1658 36.768 29.9711 37.44C28.7871 38.1013 27.4751 38.432 26.0351 38.432Z" fill="white"/>
<defs>
<linearGradient id="paint0_linear_76_507" x1="0" y1="0" x2="52.8983" y2="11.1593" gradientUnits="userSpaceOnUse">
<stop stop-color="#A7E2FF"/>
<stop offset="1" stop-color="#0095DE"/>
</linearGradient>
</defs>
</svg>
